<svg id="Layer_1" data-name="Layer 1" xmlns="http://www.w3.org/2000/svg" viewBox="0 0 413 224"><defs><style>.cls-1{fill:#ef5407;}.cls-2{fill:#1a966d;}.cls-3{fill:#13eae4;}</style></defs><path class="cls-1" d="M729.41,502H696V653h22.43V583.89h11c20.46,0,37-18.34,37-40.95h0C766.45,520.33,749.87,502,729.41,502Zm4.86,61.49c-16.71,8.13-25.94,2.92-32.1,1.25,0,0,18.76-1.46,32.83-21.69,0,0-14.36,16.27-33.56,17.31,0,0,5.57-27.11,24.62-30.24S748.93,518,748.93,518,751,555.36,734.27,563.49Z" transform="translate(-696 -429)"/><path class="cls-2" d="M727.05,606.09s88.46,20,155.87,1.64c92.51-25.2,168-3.07,208.08,3.69l-42.07,22.12S982.52,609,903.19,618.38,785.09,622.48,727.05,606.09Z" transform="translate(-696 -429)"/><path class="cls-2" d="M731.36,610.19s72.23,33,194.39,11.06c0,0,66.4-1.43,115.07,17.21L1014.46,653s-18.25-28.88-128.25-20.69S731.36,610.19,731.36,610.19Z" transform="translate(-696 -429)"/><polygon class="cls-3" points="412.58 79.28 390.58 79.28 379.38 79.28 357.38 79.28 357.38 94.3 379.38 94.3 379.38 167 390.58 167 390.58 94.3 412.58 94.3 412.58 79.28"/><path class="cls-3" d="M817,526.89h0A23,23,0,0,0,793.91,504h-22.5v.15L775,515.67h18a11.26,11.26,0,0,1,11.3,11.22h0A11.26,11.26,0,0,1,793,538.11H782l3.72,12H793a11.26,11.26,0,0,1,11.3,11.22h0A11.27,11.27,0,0,1,793,572.52h-.27l3.59,11.54A23,23,0,0,0,817,561.29h0a22.78,22.78,0,0,0-7.85-17.2A22.75,22.75,0,0,0,817,526.89Z" transform="translate(-696 -429)"/><polygon class="cls-3" points="154.13 75 154.04 75 145.23 75 145.14 75 126.27 154.39 135.17 154.39 149.64 93.54 160.92 141.01 143.07 121.18 164.06 154.39 164.1 154.39 172.96 154.39 173 154.39 154.13 75"/><path class="cls-3" d="M879.79,567.65a29.75,29.75,0,0,0,16.2,5.5c8.94,0,13.14-5,13.14-11.31,0-6.6-3.5-10.22-12.58-14-12.15-4.87-17.88-12.42-17.88-21.53,0-12.26,8.8-22.32,23.33-22.32a30.8,30.8,0,0,1,16.62,4.72l-3.07,10a24.27,24.27,0,0,0-13.83-4.4c-7.26,0-11.32,4.72-11.32,10.38,0,6.28,4.06,9.11,12.86,12.88,11.73,5,17.74,11.63,17.74,23,0,13.36-9.22,22.79-25.29,22.79-7.4,0-14.25-2-19-5.19Z" transform="translate(-696 -429)"/><polygon class="cls-3" points="293 153.06 276.85 154.39 254.01 124.94 251.75 122.02 251.75 154.43 238.78 154.43 238.78 76.96 251.75 76.96 251.75 106.44 254.13 102.93 271.76 76.98 286.35 77.32 262.04 113.13 293 153.06"/><polygon class="cls-3" points="340.59 92 349 78.92 315.35 78.92 302 78.92 302 92 302 142.34 302 155.41 315.35 155.41 329.63 155.41 335.65 142.34 315.35 142.34 315.35 123.71 332.48 123.71 339.13 110.63 315.35 110.63 315.35 92 340.59 92"/><polygon class="cls-2" points="348.03 14.91 395.87 68 413 68 353.74 0.88 294.48 68 294.63 68 348.03 14.91"/><polygon class="cls-2" points="287.29 67.34 150 67.16 213.01 0 350.3 0.19 287.29 67.34"/><path d="M1041.34,479.5V468.41c-7.66.65-13.51,4.26-13.51,8.62v2.47Z" transform="translate(-696 -429)"/><path d="M1046,479.5h13.87V477c0-4.42-6-8.08-13.87-8.65Z" transform="translate(-696 -429)"/><rect x="331.83" y="53.02" width="13.51" height="13.13"/><rect x="349.96" y="53.02" width="13.87" height="13.13"/></svg>