<svg xmlns="http://www.w3.org/2000/svg" xmlns:xlink="http://www.w3.org/1999/xlink" width="538.006" height="398.957" viewBox="0 0 538.006 398.957">
  <defs>
    <clipPath id="clip-path">
      <path id="Path_28915" data-name="Path 28915" d="M145.674,171.54s7.182,4.892,7.344,16.45c.071,5.065-.456,9.8-1.621,18.091s-8.4,35.311-14.029,38.593-14.374-2.917-14.374-2.917l-42.28-28.068-10.22-8.255-5.065-9.562,1.59-3.039,12.469,9.562-6.716-6.209,1.317-1.671,2.431,1.692,7.091,2.654,1.55,10.129,2.188,1.5L127.8,225.266s-.506-21.768-.132-25.931.891-14.627,5.348-22.214" transform="translate(-65.43 -171.54)" fill="#fff" stroke="#263238" stroke-miterlimit="10" stroke-width="1.004"/>
    </clipPath>
  </defs>
  <g id="Group_31661" data-name="Group 31661" transform="translate(-1011.994 -141.543)">
    <g id="Polygon_40" data-name="Polygon 40" transform="translate(1507 461)" fill="none" opacity="0.128">
      <path d="M21.5,0,43,37H0Z" stroke="none"/>
      <path d="M 21.5 9.951894760131836 L 8.688262939453125 32 L 34.31173706054688 32 L 21.5 9.951894760131836 M 21.5 0 L 43 37 L 0 37 L 21.5 0 Z" stroke="none" fill="#fff"/>
    </g>
    <g id="Rectangle_3610" data-name="Rectangle 3610" transform="translate(1032.5 212.994) rotate(45)" fill="#fff" stroke="#707070" stroke-width="1" opacity="0.128">
      <rect width="29" height="29" stroke="none"/>
      <rect x="0.5" y="0.5" width="28" height="28" fill="none"/>
    </g>
    <g id="Mobile_login-bro" data-name="Mobile login-bro" transform="translate(1046.27 97.727)">
      <g id="background-simple--inject-1--inject-3" transform="translate(54.73 43.816)">
        <path id="Path_28854" data-name="Path 28854" d="M413.842,103.765c-25.2-57.464-85.694-79.1-133.423-40.517-18.638,15.052-30.266,39.008-53.088,48.621-21.413,9.015-48.54,6.361-71.7,11.244C106.326,133.444,39.939,172.645,45,233.046c2.218,26.458,20.066,55.843,28.889,80.6,10.129,28.484,16.207,64.118,43.019,81.146,45.967,29.233,101.415,5.338,142.823-18.233,22.285-12.672,34.551-20.461,58.547-16.116,22.214,4.052,42.219,18.233,63.926,1.408,16.3-12.631,17.645-38.228,31.33-53.26,15.417-16.936,31.046-18.162,39.059-43.617,9.714-30.884-4.6-50.181-14.272-77.773S425.714,130.8,413.842,103.765Z" transform="translate(-44.73 -43.816)" fill="rgba(255,255,255,0.41)" opacity="0.371"/>
      </g>
      <g id="Shadow--inject-1--inject-3" transform="translate(66.544 423.264)">
        <ellipse id="Ellipse_13369" data-name="Ellipse 13369" cx="175.071" cy="9.755" rx="175.071" ry="9.755" fill="#071a95"/>
      </g>
      <g id="Group_29161" data-name="Group 29161" transform="translate(163.283 57.43)">
        <g id="Group_29145" data-name="Group 29145" transform="translate(0 0)">
          <g id="Group_29129" data-name="Group 29129" transform="translate(0 0)">
            <g id="Group_29108" data-name="Group 29108" transform="translate(0)">
              <g id="Group_29100" data-name="Group 29100">
                <path id="Path_28744" data-name="Path 28744" d="M561,1106.315a7.087,7.087,0,0,0,7.088,7.087h0a7.087,7.087,0,0,0,7.084-7.087v-30.009a7.086,7.086,0,0,0-7.084-7.086h0a7.086,7.086,0,0,0-7.088,7.086Z" transform="translate(-376.486 -930.423)" fill="#191e1f"/>
                <path id="Path_28745" data-name="Path 28745" d="M562.155,738.436a7.088,7.088,0,0,0,7.087,7.087h0a7.086,7.086,0,0,0,7.084-7.087v-70a7.084,7.084,0,0,0-7.084-7.086h0a7.086,7.086,0,0,0-7.087,7.086Z" transform="translate(-377.906 -615.19)" fill="#191e1f"/>
                <path id="Path_28746" data-name="Path 28746" d="M571.558,749.711c0,3.18,2.1,5.758,4.69,5.758h0c2.589,0,4.688-2.578,4.688-5.758V685.334c0-3.181-2.1-5.758-4.688-5.758h0c-2.589,0-4.69,2.577-4.69,5.758Z" transform="translate(-384.651 -629.278)" fill="#272e31"/>
                <path id="Path_28747" data-name="Path 28747" d="M571.558,1117.594c0,3.18,2.04,5.757,4.557,5.757h0c2.517,0,4.558-2.576,4.558-5.757v-24.386c0-3.179-2.041-5.756-4.558-5.756h0c-2.517,0-4.557,2.577-4.557,5.756Z" transform="translate(-384.388 -944.513)" fill="#272e31"/>
                <path id="Path_28748" data-name="Path 28748" d="M788.162,819.017a15.967,15.967,0,0,1-15.97,15.97H609.312a15.97,15.97,0,0,1-15.969-15.97V474.092a15.97,15.97,0,0,1,15.969-15.97H772.193a15.967,15.967,0,0,1,15.97,15.97Z" transform="translate(-593.343 -458.122)" fill="#191e1f"/>
                <path id="Path_28749" data-name="Path 28749" d="M772.195,458.122H609.312a15.97,15.97,0,0,0-15.969,15.97v5.588a15.969,15.969,0,0,1,15.969-15.968H772.195a15.968,15.968,0,0,1,15.97,15.968v-5.588A15.968,15.968,0,0,0,772.195,458.122Z" transform="translate(-593.343 -458.122)" fill="#272e31"/>
                <path id="Path_28750" data-name="Path 28750" d="M609.312,2044.03H772.193a15.969,15.969,0,0,0,15.97-15.97v-5.588a15.967,15.967,0,0,1-15.97,15.968H609.312a15.97,15.97,0,0,1-15.969-15.968v5.588A15.972,15.972,0,0,0,609.312,2044.03Z" transform="translate(-593.343 -1667.165)" fill="#4d585d"/>
                <path id="Path_28751" data-name="Path 28751" d="M802.243,847.216a15.008,15.008,0,0,1-15.009,15.008H634.149a15.009,15.009,0,0,1-15.009-15.008V523.036a15.008,15.008,0,0,1,15.009-15.008H787.234a15.008,15.008,0,0,1,15.009,15.008Z" transform="translate(-613.281 -496.694)" fill="#fff"/>
                <path id="Path_28752" data-name="Path 28752" d="M628.131,513.6a15.007,15.007,0,0,0-8.99,13.743V851.52a15.009,15.009,0,0,0,15.009,15.007H787.234a15.008,15.008,0,0,0,15.009-15.007V827.155C779.965,791.062,645.718,542.667,628.131,513.6Z" transform="translate(-613.281 -500.998)" fill="#f2faff"/>
                <path id="Path_28753" data-name="Path 28753" d="M839.671,495.823v-.264l-2.66.132-2.66-.132v.264l-51.767,2.569s12.245,1.011,15.172,3.344c3.326,2.653,4.657,5.456,6.121,9.182,1.957,4.974,5.863,4.775,10.84,4.775h44.591c4.981,0,8.885.2,10.84-4.775,1.466-3.726,2.795-6.529,6.121-9.182,2.926-2.333,15.172-3.344,15.172-3.344Z" transform="translate(-739.601 -487.056)" fill="#191e1f"/>
                <g id="Group_29099" data-name="Group 29099" transform="translate(77.183 13.872)">
                  <path id="Path_28754" data-name="Path 28754" d="M960.844,522.659a3.461,3.461,0,0,1-3.461,3.46H936.627a3.461,3.461,0,0,1-3.462-3.46h0a3.459,3.459,0,0,1,3.462-3.46h20.756a3.459,3.459,0,0,1,3.461,3.46Z" transform="translate(-933.165 -519.199)" fill="#000300"/>
                  <path id="Path_28755" data-name="Path 28755" d="M1087.731,522.659a3.46,3.46,0,1,1-3.461-3.46A3.461,3.461,0,0,1,1087.731,522.659Z" transform="translate(-1047.277 -519.199)" fill="#000300"/>
                </g>
              </g>
            </g>
          </g>
          <g id="Group_29128" data-name="Group 29128" transform="translate(29.092 266.062)">
            <g id="Group_29123" data-name="Group 29123" transform="translate(0 39.453)">
              <path id="Path_28785" data-name="Path 28785" d="M927.787,819.608h.979l-.917,3.808a1.617,1.617,0,0,0,.078,1.275,1.156,1.156,0,0,0,1.042.42,1.852,1.852,0,0,0,1.243-.42,2.393,2.393,0,0,0,.684-1.275l.917-3.808h.995l-.933,3.9a3.317,3.317,0,0,1-1.088,1.9,3.129,3.129,0,0,1-2.037.638,2.024,2.024,0,0,1-1.725-.622,2.264,2.264,0,0,1-.171-1.9Z" transform="translate(-926.737 -819.359)" fill="#3d3d3c"/>
              <path id="Path_28786" data-name="Path 28786" d="M941.923,825.484l1.555-6.513,2.954,3.824c.078.109.156.218.233.342s.156.264.249.42l1.041-4.337h.917l-1.555,6.5-3.016-3.9-.233-.327a1.658,1.658,0,0,1-.186-.373l-1.042,4.353h-.917Z" transform="translate(-935.992 -818.971)" fill="#3d3d3c"/>
              <path id="Path_28787" data-name="Path 28787" d="M959.517,825.873l1.492-6.265H962l-1.492,6.265Z" transform="translate(-946.715 -819.359)" fill="#3d3d3c"/>
              <path id="Path_28788" data-name="Path 28788" d="M965.687,825.873l1.492-6.265h3.4l-.2.871h-2.409l-.373,1.554h2.41l-.218.886h-2.41l-.7,2.938h-.994Z" transform="translate(-950.476 -819.359)" fill="#3d3d3c"/>
              <path id="Path_28789" data-name="Path 28789" d="M977.23,825.873l1.492-6.265h.995l-1.492,6.265Z" transform="translate(-957.511 -819.359)" fill="#3d3d3c"/>
              <path id="Path_28790" data-name="Path 28790" d="M983.4,825.873l1.492-6.265h3.4l-.2.871h-2.41l-.373,1.57h2.409l-.218.887h-2.409l-.482,2.021h2.41l-.217.917Z" transform="translate(-961.271 -819.359)" fill="#3d3d3c"/>
              <path id="Path_28791" data-name="Path 28791" d="M995.062,825.873l1.492-6.265h1.337a7.7,7.7,0,0,1,1.8.14,1.861,1.861,0,0,1,.824.451,1.981,1.981,0,0,1,.544,1.057,3.742,3.742,0,0,1-.078,1.477,4.845,4.845,0,0,1-.621,1.477,3.6,3.6,0,0,1-1.057,1.057,3.042,3.042,0,0,1-1.026.451,6.925,6.925,0,0,1-1.617.14h-1.6Zm1.213-.933h.84a4.65,4.65,0,0,0,1.057-.093,2.025,2.025,0,0,0,.668-.311,2.526,2.526,0,0,0,.7-.762,3.422,3.422,0,0,0,.42-1.057,2.767,2.767,0,0,0,.078-1.042,1.432,1.432,0,0,0-.342-.762,1.057,1.057,0,0,0-.544-.311,4.633,4.633,0,0,0-1.1-.093h-.715Z" transform="translate(-968.379 -819.359)" fill="#3d3d3c"/>
              <path id="Path_28792" data-name="Path 28792" d="M1019.432,823.059l-.669,2.813h-.933l1.492-6.265h1.508a4.554,4.554,0,0,1,.964.078.953.953,0,0,1,.482.249,1.036,1.036,0,0,1,.311.591,2.055,2.055,0,0,1-.031.809,2.622,2.622,0,0,1-.358.824,2.14,2.14,0,0,1-.591.59A2.092,2.092,0,0,1,1021,823a5.127,5.127,0,0,1-.995.078h-.575Zm.264-.839h.249a2.516,2.516,0,0,0,1.151-.187.967.967,0,0,0,.435-.653.668.668,0,0,0-.124-.7,1.74,1.74,0,0,0-1.026-.2h-.249Z" transform="translate(-982.256 -819.359)" fill="#3d3d3c"/>
              <path id="Path_28793" data-name="Path 28793" d="M1030.975,825.484l-.311-1.616h-2.425l-1.088,1.616h-1.041l4.508-6.513,1.4,6.513Zm-2.145-2.471h1.695l-.28-1.431a1.9,1.9,0,0,1-.031-.311,3.08,3.08,0,0,1-.016-.389,2.966,2.966,0,0,1-.2.389,3.051,3.051,0,0,1-.186.326Z" transform="translate(-987.302 -818.971)" fill="#3d3d3c"/>
              <path id="Path_28794" data-name="Path 28794" d="M1044.024,825.9l.684-2.86-1.244-3.389h1.042l.777,2.13c.016.062.031.124.062.217s.047.187.078.28l.186-.28c.062-.093.125-.171.187-.249l1.818-2.1h.995l-2.907,3.373-.684,2.86h-.995Z" transform="translate(-997.879 -819.384)" fill="#3d3d3c"/>
              <path id="Path_28795" data-name="Path 28795" d="M1059.313,822.391c0-.046.016-.186.047-.4.015-.186.031-.326.047-.451-.062.14-.125.28-.2.435a3.406,3.406,0,0,1-.279.435l-2.394,3.342-.777-3.4c-.031-.14-.062-.28-.078-.4a3.229,3.229,0,0,1-.031-.389c-.031.124-.078.264-.124.419a3.631,3.631,0,0,1-.187.451l-1.4,3.078h-.917l3-6.529.854,3.949a2.675,2.675,0,0,1,.047.31c.016.14.047.327.078.544.109-.187.249-.4.435-.684a1.394,1.394,0,0,0,.109-.171l2.7-3.949-.093,6.529h-.917Z" transform="translate(-1003.701 -818.971)" fill="#3d3d3c"/>
              <path id="Path_28796" data-name="Path 28796" d="M1073.358,825.873l1.493-6.265h3.4l-.2.871h-2.41l-.373,1.57h2.409l-.217.887h-2.41l-.482,2.021h2.41l-.218.917Z" transform="translate(-1016.098 -819.359)" fill="#3d3d3c"/>
              <path id="Path_28797" data-name="Path 28797" d="M1084.981,825.484l1.555-6.513,2.954,3.824c.078.109.156.218.234.342s.155.264.248.42l1.041-4.337h.917l-1.554,6.5-3.015-3.9-.234-.327a1.675,1.675,0,0,1-.186-.373l-1.042,4.353h-.917Z" transform="translate(-1023.182 -818.971)" fill="#3d3d3c"/>
              <path id="Path_28798" data-name="Path 28798" d="M1106.82,820.438l-1.291,5.394h-.994l1.29-5.394h-1.616l.2-.87h4.228l-.2.87Z" transform="translate(-1034.9 -819.335)" fill="#3d3d3c"/>
              <path id="Path_28799" data-name="Path 28799" d="M1113.559,824.395l.886-.373a.835.835,0,0,0,.265.638,1.088,1.088,0,0,0,.715.217,1.18,1.18,0,0,0,.761-.248,1.131,1.131,0,0,0,.42-.669q.14-.56-.653-.979a.974.974,0,0,0-.171-.093,3,3,0,0,1-1.12-.917,1.336,1.336,0,0,1-.093-1,2.163,2.163,0,0,1,.808-1.243,2.345,2.345,0,0,1,1.446-.482,1.954,1.954,0,0,1,1.072.264,1.029,1.029,0,0,1,.451.762l-.87.4a.938.938,0,0,0-.3-.436.756.756,0,0,0-.466-.14,1.125,1.125,0,0,0-.684.217.99.99,0,0,0-.373.575c-.093.373.172.731.777,1.057a.817.817,0,0,0,.109.062,2.523,2.523,0,0,1,1.041.839,1.4,1.4,0,0,1,.094,1.026,2.474,2.474,0,0,1-.886,1.415,2.578,2.578,0,0,1-1.6.529,1.756,1.756,0,0,1-1.2-.373A1.22,1.22,0,0,1,1113.559,824.395Z" transform="translate(-1040.599 -819.14)" fill="#3d3d3c"/>
              <path id="Path_28800" data-name="Path 28800" d="M1132.31,825.873l1.492-6.265h.995l-1.492,6.265Z" transform="translate(-1052.027 -819.359)" fill="#3d3d3c"/>
              <path id="Path_28801" data-name="Path 28801" d="M1138.519,825.484l1.555-6.513,2.954,3.824c.078.109.155.218.233.342s.156.264.249.42l1.042-4.337h.917l-1.555,6.5-3.016-3.9-.233-.327a1.674,1.674,0,0,1-.187-.373l-1.041,4.353h-.917Z" transform="translate(-1055.811 -818.971)" fill="#3d3d3c"/>
              <path id="Path_28802" data-name="Path 28802" d="M1160.356,820.438l-1.29,5.394h-1l1.291-5.394h-1.617l.2-.87h4.228l-.2.87Z" transform="translate(-1067.529 -819.335)" fill="#3d3d3c"/>
              <path id="Path_28803" data-name="Path 28803" d="M1167.178,825.873l1.493-6.265h3.42l-.2.871h-2.41l-.373,1.57h2.409l-.217.887h-2.409l-.482,2.021h2.409l-.218.917Z" transform="translate(-1073.278 -819.359)" fill="#3d3d3c"/>
              <path id="Path_28804" data-name="Path 28804" d="M1180.4,823.035l-.668,2.8h-.933l1.492-6.265h1.384a4.356,4.356,0,0,1,.917.078,1.011,1.011,0,0,1,.512.264,1.065,1.065,0,0,1,.3.591,1.98,1.98,0,0,1-.031.793,2.287,2.287,0,0,1-.637,1.181,2.12,2.12,0,0,1-1.167.513l1.415,2.844h-1.119l-1.353-2.8Zm.249-.793h.186a2.233,2.233,0,0,0,1.089-.186,1.008,1.008,0,0,0,.42-.669c.077-.342.046-.591-.109-.731a1.553,1.553,0,0,0-.979-.218h-.187Z" transform="translate(-1080.362 -819.335)" fill="#3d3d3c"/>
              <path id="Path_28805" data-name="Path 28805" d="M1191.062,825.873l1.492-6.265h3.4l-.2.871h-2.409l-.373,1.554h2.409l-.218.886h-2.409l-.7,2.938h-.995Z" transform="translate(-1087.834 -819.359)" fill="#3d3d3c"/>
              <path id="Path_28806" data-name="Path 28806" d="M1204.484,825.484l-.311-1.616h-2.425l-1.089,1.616h-1.041l4.508-6.513,1.4,6.513Zm-2.16-2.471h1.694l-.28-1.431a1.961,1.961,0,0,1-.031-.311,3.1,3.1,0,0,1-.016-.389,3,3,0,0,1-.2.389,2.872,2.872,0,0,1-.187.326Z" transform="translate(-1093.05 -818.971)" fill="#3d3d3c"/>
              <path id="Path_28807" data-name="Path 28807" d="M1222.418,820.889a1.99,1.99,0,0,0-.762-.544,2.3,2.3,0,0,0-.948-.186,2.73,2.73,0,0,0-1.788.653,3.1,3.1,0,0,0-1.042,1.71,2.031,2.031,0,0,0,.218,1.679,1.56,1.56,0,0,0,1.383.653,2.909,2.909,0,0,0,1.073-.2,4.422,4.422,0,0,0,1.088-.591l-.28,1.15a3.444,3.444,0,0,1-.98.435,3.956,3.956,0,0,1-1.057.14,3.1,3.1,0,0,1-1.244-.234,2.168,2.168,0,0,1-.887-.7,2.221,2.221,0,0,1-.435-1.057,3.159,3.159,0,0,1,.078-1.306,4.274,4.274,0,0,1,.544-1.29,4.092,4.092,0,0,1,.948-1.057,3.974,3.974,0,0,1,1.213-.7,3.872,3.872,0,0,1,1.322-.233,2.975,2.975,0,0,1,.995.155,2.6,2.6,0,0,1,.823.482Z" transform="translate(-1103.475 -819.117)" fill="#3d3d3c"/>
              <path id="Path_28808" data-name="Path 28808" d="M1231.543,825.873l1.492-6.265h3.4l-.2.871h-2.409l-.373,1.57h2.409l-.218.887h-2.409l-.482,2.021h2.41l-.218.917Z" transform="translate(-1112.506 -819.359)" fill="#3d3d3c"/>
            </g>
            <g id="Group_29127" data-name="Group 29127" transform="translate(3.446 0)">
              <g id="Group_29125" data-name="Group 29125">
                <path id="Path_28809" data-name="Path 28809" d="M1174.56,752.193h-6.824l9.483-34.246h6.824Z" transform="translate(-1077.064 -717.947)" fill="#70706e"/>
                <g id="Group_29124" data-name="Group 29124" transform="translate(44.767 0.093)">
                  <path id="Path_28810" data-name="Path 28810" d="M1099.376,719.165a2.509,2.509,0,0,0-2.192-.98H1059.69l-1.85,6.716h34.106l-1.99,7.166h-27.282v-.016h-6.824l-5.658,20.442h6.824l3.793-13.711h30.67a4.323,4.323,0,0,0,2.7-.98,4.556,4.556,0,0,0,1.664-2.425l3.792-13.71A2.78,2.78,0,0,0,1099.376,719.165Z" transform="translate(-1050.192 -718.185)" fill="#70706e"/>
                </g>
                <path id="Path_28811" data-name="Path 28811" d="M976.349,750.193a3.143,3.143,0,0,1-3.016,2.3H938.155a2.46,2.46,0,0,1-2.145-.979,2.693,2.693,0,0,1-.3-2.425l8.581-30.9h6.824l-7.664,27.608h27.3l7.663-27.608h6.824Z" transform="translate(-935.562 -718.092)" fill="#70706e"/>
              </g>
              <g id="Group_29126" data-name="Group 29126" transform="translate(103.169 0.062)">
                <path id="Path_28812" data-name="Path 28812" d="M1224.815,718.106l8.628,17.162L1215.3,752.429Z" transform="translate(-1209.224 -718.106)" fill="#098041"/>
                <path id="Path_28813" data-name="Path 28813" d="M1209.268,718.106l8.628,17.162-18.157,17.162Z" transform="translate(-1199.738 -718.106)" fill="#e97626"/>
              </g>
            </g>
          </g>
          <g id="user_1_" data-name="user (1)" transform="translate(53.462 77.579)">
            <path id="Path_28836" data-name="Path 28836" d="M123.048,0,95.6,43.8l27.446,43.8a43.8,43.8,0,1,0,0-87.61Z" transform="translate(-79.243)" fill="#faa61a"/>
            <path id="Path_28837" data-name="Path 28837" d="M0,43.8a43.8,43.8,0,0,0,43.8,43.8V0A43.8,43.8,0,0,0,0,43.8Z" fill="#ffae3b"/>
            <path id="Path_28838" data-name="Path 28838" d="M201.469,60,190.212,77.967l11.257,17.967a17.967,17.967,0,0,0,0-35.934Z" transform="translate(-157.664 -49.733)" fill="#004e96"/>
            <path id="Path_28839" data-name="Path 28839" d="M151,77.967a17.967,17.967,0,0,0,17.967,17.967V60A17.967,17.967,0,0,0,151,77.967Z" transform="translate(-125.162 -49.733)" fill="#3649c7"/>
            <path id="Path_28840" data-name="Path 28840" d="M235.125,306.065A17.982,17.982,0,0,0,221.667,300h-15.4L196,313l10.267,13a33.629,33.629,0,0,0,29.167-16.974l.908-1.6Z" transform="translate(-162.462 -248.666)" fill="#004e96"/>
            <path id="Path_28841" data-name="Path 28841" d="M94.915,300a17.982,17.982,0,0,0-13.458,6.065l-1.217,1.375.908,1.6a33.629,33.629,0,0,0,29.167,16.974V300Z" transform="translate(-66.511 -248.666)" fill="#3649c7"/>
          </g>
          <rect id="Rectangle_3602" data-name="Rectangle 3602" width="113" height="17" transform="translate(40.447 187.843)" fill="#004e96"/>
        </g>
      </g>
      <g id="Plant--inject-1--inject-3" transform="translate(344.357 239.696)">
        <path id="Path_28866" data-name="Path 28866" d="M385.588,284.605s-14.12-35.878-1.55-40.142c13.087-4.447,12.51,19.246,12,30.793-1.064,24.675-3.788,29.264-5.824,23.237Zm-4.244,27.987c3.879,5.065,4.974-.182-2.026-23.875-3.282-11.142-10.413-33.68-21.353-25.222-10.5,8.1,14.5,37.478,14.5,37.478Zm-7.5,20.563c3.7,3.282,3.768-.861-5.014-17.969-4.123-8.012-12.844-24.229-19.985-16.207-6.858,7.739,16.511,26.549,16.511,26.549Zm-8.1,24.452c3.7,3.292,3.768-.861-5.014-17.959-4.123-8.012-12.844-24.239-19.985-16.207-6.817,7.759,16.48,26.569,16.48,26.569Zm23.4-49.775c-5.916,2.309-1.216,4.822,23.49,4.751,11.588,0,35.25-.527,30.206-13.4-4.832-12.368-40.021,3.383-40.021,3.383Zm-6.736,16.45c-6.26,1.084-2.147,4.487,22.082,9.329,11.355,2.279,34.642,6.483,32.262-7.091-2.279-13.087-39.9-4.639-39.9-4.639Zm-7.536,20.086c-5.328.77-1.925,3.738,18.445,8.4,9.552,2.188,29.152,6.29,27.45-5.287-1.621-11.142-33.629-4.842-33.629-4.842Zm-5.723,18.608c-5.217,1.327-1.519,3.92,19.246,6.392,9.724,1.155,29.648,3.16,26.741-8.174-2.806-10.879-33.964-1.246-33.964-1.246Zm30.53-75.332c-3.039,6.807,3.272,5.774,24.726-12.945,10.048-8.782,30.206-27.157,14.242-36.3-15.326-8.792-31.806,33.629-31.806,33.629Zm-29.74,99.571c-3.211,1.874-.061,2.6,14.667-.334,6.908-1.367,20.958-4.406,16.207-10.4-4.6-5.774-23.439,6.381-23.439,6.381Z" transform="translate(-339.496 -237.196)" fill="#92e3a9"/>
        <path id="Path_28867" data-name="Path 28867" d="M385.588,284.605s-14.12-35.878-1.55-40.142c13.087-4.447,12.51,19.246,12,30.793-1.064,24.675-3.788,29.264-5.824,23.237Zm-4.244,27.987c3.879,5.065,4.974-.182-2.026-23.875-3.282-11.142-10.413-33.68-21.353-25.222-10.5,8.1,14.5,37.478,14.5,37.478Zm-7.5,20.563c3.7,3.282,3.768-.861-5.014-17.969-4.123-8.012-12.844-24.229-19.985-16.207-6.858,7.739,16.511,26.549,16.511,26.549Zm-8.1,24.452c3.7,3.292,3.768-.861-5.014-17.959-4.123-8.012-12.844-24.239-19.985-16.207-6.817,7.759,16.48,26.569,16.48,26.569Zm23.4-49.775c-5.916,2.309-1.216,4.822,23.49,4.751,11.588,0,35.25-.527,30.206-13.4-4.832-12.368-40.021,3.383-40.021,3.383Zm-6.736,16.45c-6.26,1.084-2.147,4.487,22.082,9.329,11.355,2.279,34.642,6.483,32.262-7.091-2.279-13.087-39.9-4.639-39.9-4.639Zm-7.536,20.086c-5.328.77-1.925,3.738,18.445,8.4,9.552,2.188,29.152,6.29,27.45-5.287-1.621-11.142-33.629-4.842-33.629-4.842Zm-5.723,18.608c-5.217,1.327-1.519,3.92,19.246,6.392,9.724,1.155,29.648,3.16,26.741-8.174-2.806-10.879-33.964-1.246-33.964-1.246Zm30.53-75.332c-3.039,6.807,3.272,5.774,24.726-12.945,10.048-8.782,30.206-27.157,14.242-36.3-15.326-8.792-31.806,33.629-31.806,33.629Zm-29.74,99.571c-3.211,1.874-.061,2.6,14.667-.334,6.908-1.367,20.958-4.406,16.207-10.4-4.6-5.774-23.439,6.381-23.439,6.381Z" transform="translate(-339.496 -237.196)" fill="#7dd321" opacity="0.3"/>
        <path id="Path_28868" data-name="Path 28868" d="M391.619,301.11l-2.461-40.953m-5.328,54.465L368.271,279.4m55.711,24.979L386.7,309.73M375.766,333.6l-20.188-25.9m23.733,17.959,27.815,1.4m-34.4,18.466L394,347.634m-26.407,10.514-10.565-15.893m9.349,21.5,25.009.233m-30.074,46.686A.638.638,0,0,0,361.9,410c-1.59-23.885,7.648-63,22.467-95.114,9.471-20.522,46.595-60.857,46.99-61.262a.638.638,0,0,0,0-.9.628.628,0,0,0-.891,0c-.375.405-37.651,40.892-47.2,61.6-15.093,32.89-24.209,71.3-22.588,95.762a.648.648,0,0,0,.638.6Zm30.3-108.941a.638.638,0,0,0,.6-.669L389.785,260.1a.628.628,0,0,0-.669-.6.638.638,0,0,0-.6.669l2.461,40.953a.628.628,0,0,0,.628.6ZM384.052,315.2a.638.638,0,0,0,.324-.831l-15.569-35.22a.63.63,0,0,0-1.155.506l15.559,35.22a.638.638,0,0,0,.577.385.629.629,0,0,0,.3-.061Zm2.694-4.862,37.266-5.328a.638.638,0,1,0-.172-1.256l-37.266,5.328a.629.629,0,1,0,.081,1.256Zm-10.626,23.773a.638.638,0,0,0,.111-.891l-20.2-25.951a.639.639,0,1,0-1.013.78L375.26,334.04a.628.628,0,0,0,.5.243.638.638,0,0,0,.405-.172Zm31.563-7.02a.638.638,0,0,0-.608-.658l-27.764-1.408a.638.638,0,0,0-.061,1.266l27.815,1.408h0a.638.638,0,0,0,.658-.608Zm-13.1,20.6a.628.628,0,0,0-.567-.7l-21.272-2.1a.628.628,0,0,0-.689.567.638.638,0,0,0,.567.689l21.272,2.107h.061a.628.628,0,0,0,.669-.567ZM367.9,358.675a.638.638,0,0,0,.182-.881L357.564,341.9a.648.648,0,0,0-.881-.172.638.638,0,0,0-.182.881L367.015,358.5a.659.659,0,0,0,.537.284.608.608,0,0,0,.385-.111Zm24.128,5.318a.648.648,0,0,0-.628-.638l-25.009-.233h0a.628.628,0,0,0-.628.628.618.618,0,0,0,.628.638l25.009.233h0a.638.638,0,0,0,.668-.628Zm-33.558,37.4c.051-.111,4.315-11.861,17.139-14.667a.638.638,0,0,0,.486-.76.648.648,0,0,0-.76-.476c-13.523,2.958-18.01,15.366-18.061,15.488a.648.648,0,0,0,.4.81h.2a.628.628,0,0,0,.638-.395Zm2.846,9.289A.638.638,0,0,0,361.9,410c-1.59-23.885,7.648-63,22.467-95.114,9.471-20.522,46.595-60.857,46.99-61.262a.638.638,0,0,0,0-.9.628.628,0,0,0-.891,0c-.375.405-37.651,40.892-47.2,61.6-15.093,32.89-24.209,71.3-22.588,95.762a.648.648,0,0,0,.638.6Zm30.3-108.941a.638.638,0,0,0,.6-.669L389.785,260.1a.628.628,0,0,0-.669-.6.638.638,0,0,0-.6.669l2.461,40.953a.628.628,0,0,0,.628.6ZM384.052,315.2a.638.638,0,0,0,.324-.831l-15.569-35.22a.63.63,0,0,0-1.155.506l15.559,35.22a.638.638,0,0,0,.577.385.629.629,0,0,0,.3-.061Zm2.694-4.862,37.266-5.328a.638.638,0,1,0-.172-1.256l-37.266,5.328a.629.629,0,1,0,.081,1.256Zm-10.626,23.773a.638.638,0,0,0,.111-.891l-20.2-25.951a.639.639,0,0,0-1.013.78L375.26,334.04a.628.628,0,0,0,.5.243.638.638,0,0,0,.405-.172Zm31.563-7.02a.638.638,0,0,0-.608-.658l-27.764-1.408a.638.638,0,0,0-.061,1.266l27.815,1.408h0a.638.638,0,0,0,.658-.608Zm-13.1,20.6a.628.628,0,0,0-.567-.7l-21.272-2.1a.628.628,0,0,0-.689.567.638.638,0,0,0,.567.689l21.272,2.107h.061a.628.628,0,0,0,.668-.567ZM367.9,358.675a.638.638,0,0,0,.182-.881L357.564,341.9a.648.648,0,0,0-.881-.172.638.638,0,0,0-.182.881L367.015,358.5a.659.659,0,0,0,.537.284.608.608,0,0,0,.385-.111Zm24.128,5.318a.648.648,0,0,0-.628-.638l-25.009-.233h0a.628.628,0,0,0-.628.628.618.618,0,0,0,.628.638l25.009.233h0a.638.638,0,0,0,.668-.628Zm-33.558,37.4c.051-.111,4.315-11.861,17.139-14.667a.638.638,0,0,0,.486-.76.648.648,0,0,0-.76-.476c-13.523,2.958-18.01,15.366-18.061,15.488a.648.648,0,0,0,.4.81h.2a.628.628,0,0,0,.638-.4Z" transform="translate(-339.297 -236.997)" fill="#92e3a9"/>
        <path id="Path_28869" data-name="Path 28869" d="M391.619,301.11l-2.461-40.953m-5.328,54.465L368.271,279.4m55.711,24.979L386.7,309.73M375.766,333.6l-20.188-25.9m23.733,17.959,27.815,1.4m-34.4,18.466L394,347.634m-26.407,10.514-10.565-15.893m9.349,21.5,25.009.233m-30.074,46.686A.638.638,0,0,0,361.9,410c-1.59-23.885,7.648-63,22.467-95.114,9.471-20.522,46.595-60.857,46.99-61.262a.638.638,0,0,0,0-.9.628.628,0,0,0-.891,0c-.375.405-37.651,40.892-47.2,61.6-15.093,32.89-24.209,71.3-22.588,95.762a.648.648,0,0,0,.638.6Zm30.3-108.941a.638.638,0,0,0,.6-.669L389.785,260.1a.628.628,0,0,0-.669-.6.638.638,0,0,0-.6.669l2.461,40.953a.628.628,0,0,0,.628.6ZM384.052,315.2a.638.638,0,0,0,.324-.831l-15.569-35.22a.63.63,0,0,0-1.155.506l15.559,35.22a.638.638,0,0,0,.577.385.629.629,0,0,0,.3-.061Zm2.694-4.862,37.266-5.328a.638.638,0,1,0-.172-1.256l-37.266,5.328a.629.629,0,1,0,.081,1.256Zm-10.626,23.773a.638.638,0,0,0,.111-.891l-20.2-25.951a.639.639,0,1,0-1.013.78L375.26,334.04a.628.628,0,0,0,.5.243.638.638,0,0,0,.405-.172Zm31.563-7.02a.638.638,0,0,0-.608-.658l-27.764-1.408a.638.638,0,0,0-.061,1.266l27.815,1.408h0a.638.638,0,0,0,.658-.608Zm-13.1,20.6a.628.628,0,0,0-.567-.7l-21.272-2.1a.628.628,0,0,0-.689.567.638.638,0,0,0,.567.689l21.272,2.107h.061a.628.628,0,0,0,.669-.567ZM367.9,358.675a.638.638,0,0,0,.182-.881L357.564,341.9a.648.648,0,0,0-.881-.172.638.638,0,0,0-.182.881L367.015,358.5a.659.659,0,0,0,.537.284.608.608,0,0,0,.385-.111Zm24.128,5.318a.648.648,0,0,0-.628-.638l-25.009-.233h0a.628.628,0,0,0-.628.628.618.618,0,0,0,.628.638l25.009.233h0a.638.638,0,0,0,.668-.628Zm-33.558,37.4c.051-.111,4.315-11.861,17.139-14.667a.638.638,0,0,0,.486-.76.648.648,0,0,0-.76-.476c-13.523,2.958-18.01,15.366-18.061,15.488a.648.648,0,0,0,.4.81h.2a.628.628,0,0,0,.638-.395Zm2.846,9.289A.638.638,0,0,0,361.9,410c-1.59-23.885,7.648-63,22.467-95.114,9.471-20.522,46.595-60.857,46.99-61.262a.638.638,0,0,0,0-.9.628.628,0,0,0-.891,0c-.375.405-37.651,40.892-47.2,61.6-15.093,32.89-24.209,71.3-22.588,95.762a.648.648,0,0,0,.638.6Zm30.3-108.941a.638.638,0,0,0,.6-.669L389.785,260.1a.628.628,0,0,0-.669-.6.638.638,0,0,0-.6.669l2.461,40.953a.628.628,0,0,0,.628.6ZM384.052,315.2a.638.638,0,0,0,.324-.831l-15.569-35.22a.63.63,0,0,0-1.155.506l15.559,35.22a.638.638,0,0,0,.577.385.629.629,0,0,0,.3-.061Zm2.694-4.862,37.266-5.328a.638.638,0,1,0-.172-1.256l-37.266,5.328a.629.629,0,1,0,.081,1.256Zm-10.626,23.773a.638.638,0,0,0,.111-.891l-20.2-25.951a.639.639,0,0,0-1.013.78L375.26,334.04a.628.628,0,0,0,.5.243.638.638,0,0,0,.405-.172Zm31.563-7.02a.638.638,0,0,0-.608-.658l-27.764-1.408a.638.638,0,0,0-.061,1.266l27.815,1.408h0a.638.638,0,0,0,.658-.608Zm-13.1,20.6a.628.628,0,0,0-.567-.7l-21.272-2.1a.628.628,0,0,0-.689.567.638.638,0,0,0,.567.689l21.272,2.107h.061a.628.628,0,0,0,.668-.567ZM367.9,358.675a.638.638,0,0,0,.182-.881L357.564,341.9a.648.648,0,0,0-.881-.172.638.638,0,0,0-.182.881L367.015,358.5a.659.659,0,0,0,.537.284.608.608,0,0,0,.385-.111Zm24.128,5.318a.648.648,0,0,0-.628-.638l-25.009-.233h0a.628.628,0,0,0-.628.628.618.618,0,0,0,.628.638l25.009.233h0a.638.638,0,0,0,.668-.628Zm-33.558,37.4c.051-.111,4.315-11.861,17.139-14.667a.638.638,0,0,0,.486-.76.648.648,0,0,0-.76-.476c-13.523,2.958-18.01,15.366-18.061,15.488a.648.648,0,0,0,.4.81h.2a.628.628,0,0,0,.638-.4Z" transform="translate(-339.297 -236.997)" opacity="0.2"/>
        <path id="Path_28870" data-name="Path 28870" d="M377.926,391.03H349.25v5.936h2.5l5.176,32.383h13.32l5.176-32.383h2.5Z" transform="translate(-339.37 -235.206)" fill="#92e3a9"/>
        <path id="Path_28871" data-name="Path 28871" d="M377.926,391.03H349.25v5.936h2.5l5.176,32.383h13.32l5.176-32.383h2.5Z" transform="translate(-339.37 -235.206)" fill="#faa61a"/>
      </g>
      <g id="Character--inject-1--inject-3" transform="translate(61.561 114.938)">
        <path id="Path_28872" data-name="Path 28872" d="M123.387,214.1,90.031,203.213l-2.968-7.84-6.777-.213-12.3-2.33,1.479,2.542,15.478,11.233,3.819,1.9,34.885,18.223Z" transform="translate(-60.211 -113.011)" fill="#fff" stroke="#004e96" stroke-miterlimit="10" stroke-width="1.004"/>
        <path id="Path_28873" data-name="Path 28873" d="M86.942,195.364l-3.181-1.9-6.351,2.33,1.053,1.266Z" transform="translate(-60.089 -113.003)" fill="#fff" stroke="#263238" stroke-linejoin="round" stroke-width="1.004"/>
        <path id="Path_28874" data-name="Path 28874" d="M123.387,214.1,90.031,203.213l-2.968-7.84-6.777-.213-12.3-2.33,1.479,2.542,15.478,11.233,3.819,1.9,34.885,18.223Z" transform="translate(-60.846 -113.011)" fill="#e2e4f5"/>
        <path id="Path_28877" data-name="Path 28877" d="M123.387,214.1,90.031,203.213l-2.968-7.84-6.777-.213-12.3-2.33,1.479,2.542,15.478,11.233,3.819,1.9,34.885,18.223Z" transform="translate(-60.211 -113.011)" fill="none"/>
        <path id="Path_28878" data-name="Path 28878" d="M86.942,195.364l-3.181-1.9-6.351,2.33,1.053,1.266Z" transform="translate(-60.089 -113.003)" fill="#fff"/>
        <path id="Path_28881" data-name="Path 28881" d="M86.942,195.364l-3.181-1.9-6.351,2.33,1.053,1.266Z" transform="translate(-60.089 -113.003)" fill="none" stroke="#004e96" stroke-linejoin="round" stroke-width="1.004"/>
        <path id="Path_28882" data-name="Path 28882" d="M129.821,144.09s-.517,4.558.77,7.486,8.428,12.844,8.428,12.844l-13.33,10.686s-5.531-11.142-6.584-12.945-2.32-9.562,1.114-15.123S128.6,139.977,129.821,144.09Z" transform="translate(-59.565 -113.671)" fill="#fff" stroke="#004e96" stroke-width="1"/>
        <path id="Path_28886" data-name="Path 28886" d="M134.242,136.011c-.82-5.065-6.625-15.366-15.832-14.971-5.976.263-8.772,1.469-11.365,2.938a33.426,33.426,0,0,0-5.875,4.4c-4.5,5.4-6.078,6.878-5.206,11.011a12.4,12.4,0,0,0,.76,4.842c1.378,3.677,2.32,6.078,3.515,7.83-.365,1.712-1.317,6.23-1.367,7.263s3.039.314,4.6-.081c2.9,6.483,8.2,10.98,9.856,11.5,2.877.9,7.425-3.829,9.836-7.5s.588-7.789.6-9.43,5.419-5.247,7.425-6.392S135.052,141.066,134.242,136.011Z" transform="translate(-59.852 -113.939)" fill="#fff" stroke="#004e96" stroke-width="1"/>
        <path id="Path_28893" data-name="Path 28893" d="M122.183,117.1a71.979,71.979,0,0,0-9.532-.729s-9.542-5.5-18.709.365-4.761,16.136-4.761,18.7-2.937,2.573-1.1,5.875,8.033,1.479,8.033,1.479a8.813,8.813,0,0,1,3.312-6.432c3.3-2.563,5.936-3.12,7.03-2.38,0,0-.729,5.5.365,7.7,0,0,3.667,1.833,4.771,1.833s-.719,1.55,2.938,2.927a4.578,4.578,0,0,0,4.052-.476c.537-2.228,1.712-5.581,3.9-4.8,3.211,1.145,6.138,9.045,1.793,11.74,5.227.952,11.558-8.3,11.932-16.723S127.612,118.051,122.183,117.1Z" transform="translate(-59.959 -114.03)"/>
        <path id="Path_28899" data-name="Path 28899" d="M146.686,410.81s3.819,5.936,3.393,9.755l-.415,3.819s-14.009,3.839-16.977,3.839-18.678-1.489-18.678-1.489l-.679-2.694a.891.891,0,0,1,.486-1.013l14.009-6.533,4.416-4.832Z" transform="translate(-59.625 -110.192)" fill="#e0e4ff" stroke="#004e96" stroke-miterlimit="10" stroke-width="1.004"/>
        <path id="Path_28900" data-name="Path 28900" d="M134.812,425.095c3.8.294,11.011-2.026,15.194-3.5l-.294,2.654s-14.06,3.839-17.027,3.839-18.678-1.489-18.678-1.489l-.486-1.925C116.032,424.679,129.788,424.71,134.812,425.095Z" transform="translate(-59.622 -110.053)" fill="#99a4ef" stroke="#004e96" stroke-miterlimit="10" stroke-width="1.004"/>
        <path id="Path_28901" data-name="Path 28901" d="M127.93,416.426,107.54,425.3s-1.742,4.366,0,5.237,39.727,0,39.727,0,2.623-6.9-1.519-11.527S127.93,416.426,127.93,416.426Z" transform="translate(-59.71 -110.125)" fill="#e0e4ff" stroke="#004e96" stroke-miterlimit="10" stroke-width="1.004"/>
        <path id="Path_28902" data-name="Path 28902" d="M147.267,430.386s-37.985.871-39.727,0c-.841-.425-.871-1.651-.679-2.816h41.074a15.451,15.451,0,0,1-.669,2.816Z" transform="translate(-59.71 -109.976)" fill="#99a4ef" stroke="#004e96" stroke-miterlimit="10" stroke-width="1.004"/>
        <path id="Path_28903" data-name="Path 28903" d="M118.27,264.257s-5.328,23.611-7.344,38.38-3.2,44.356-2.775,47.75,21.636,60.249,21.636,60.249L131.9,415.7l14.85-2.968s-6.787-21.636-9.329-33.518-8.1-31.4-8.1-34.794,13.168-68.2,14.11-72.455,5.217-10.788,5.217-10.788l-28.433-.577Z" transform="translate(-59.693 -112.135)" stroke="rgba(255,255,255,0.4)" stroke-miterlimit="10" stroke-width="0.5"/>
        <path id="Path_28904" data-name="Path 28904" d="M118.167,264.3s-3.12,21.565-1.833,36.557,4.052,46.909,4.052,51.659,7.668,33.123,8.1,42.037c.679,12.874-.274,19.246-.274,19.246l-.456,4.67s8.944,1.276,10.9,1.833a24.209,24.209,0,0,0,6.918.75s3.252-14.313,3.252-26.508-2.7-37.3-4.052-47.466,2.9-49.4,5.308-56.724,7.678-22.831,4.133-30.753S118.167,264.3,118.167,264.3Z" transform="translate(-59.59 -112.181)" fill="#2c2c2c" stroke="rgba(255,255,255,0.4)" stroke-miterlimit="10" stroke-width="0.5"/>
        <path id="Path_28905" data-name="Path 28905" d="M158.176,255.65l-.324,9.643s-5.774,1.145-13.553,2.492c-6.422,1.114-22.548-.294-27.977-.82a1.884,1.884,0,0,1-1.712-2.026l.527-8.711Z" transform="translate(-59.608 -112.199)" fill="#0f1e80"/>
        <path id="Path_28906" data-name="Path 28906" d="M135.6,160.75s-9.116,9.856-12.55,15.984-4.791,15.518-6.078,22.913,2.2,24.756,1.216,32.728l-3.11,25.111s-.669,1.7,1.57,3.566,13.168,2.542,23.044,3.039c3.606.182,14.374-2.137,16.136-2.249,2.127-.132,2.2-2.836,2.289-4.963.425-10,2.228-36.648,3.414-48.256C163.975,184.949,150.615,162.1,135.6,160.75Z" transform="translate(-59.603 -113.426)" fill="#e0e4fc" stroke="#004e96" stroke-miterlimit="10" stroke-width="1.004"/>
        <path id="Path_28907" data-name="Path 28907" d="M160.4,221.549c.405-5.257.81-10.028,1.165-13.462.1-1.013.162-2.026.213-3.039L137.556,209.1,116.75,202.01a115.255,115.255,0,0,0,.729,12.885l20.411,5.713Z" transform="translate(-59.581 -112.892)" fill="#faa61a" style="mix-blend-mode: multiply;isolation: isolate"/>
        <path id="Path_28909" data-name="Path 28909" d="M135.532,160.75s-9.116,9.856-12.55,15.984a31.087,31.087,0,0,0-2.461,5.855l18.334-21.18A17.221,17.221,0,0,0,135.532,160.75Z" transform="translate(-59.532 -113.426)" fill="#004e96"/>
        <path id="Path_28908" data-name="Path 28908" d="M137.121,165.811s-4.208,4.562-6.811,7.864L144.1,186.789l5.065-2.026Z" transform="translate(-60.345 -114.901)" fill="#faa61a"/>
        <path id="Path_28910" data-name="Path 28910" d="M117.65,195.387l19.894,6.544,24.158-2.775a56.652,56.652,0,0,0-3.961-17.534l-19.479,7.81-17.412-7.891A91.642,91.642,0,0,0,117.65,195.387Z" transform="translate(-59.569 -113.157)" fill="#faa61a" style="mix-blend-mode: multiply;isolation: isolate"/>
        <path id="Path_28911" data-name="Path 28911" d="M151.926,245.833a61.6,61.6,0,0,1-30.125-2.461l-4.852-1.661-1.509,12.155,5.531,1.55a83.393,83.393,0,0,0,32.343,2.492l4.467-.537a4.052,4.052,0,0,0,.385-1.57c.122-2.7.334-6.635.608-11.142Z" transform="translate(-59.597 -112.379)" fill="#faa61a" style="mix-blend-mode: multiply;isolation: isolate"/>
        <path id="Path_28912" data-name="Path 28912" d="M154.6,229.5a61.363,61.363,0,0,1-30.125-2.472L118.3,224.91a39.911,39.911,0,0,1-.091,6.625l-.719,5.845,6.159,1.722a83.355,83.355,0,0,0,32.333,2.5l3.039-.365c.253-4.052.547-8.367.861-12.631Z" transform="translate(-59.571 -112.596)" fill="#faa61a" style="mix-blend-mode: multiply;isolation: isolate"/>
        <rect id="Rectangle_3609" data-name="Rectangle 3609" width="29.131" height="2.347" transform="matrix(-0.779, -0.627, 0.627, -0.779, 19.585, 89.815)" fill="#faa61a"/>
        <path id="Path_28913" data-name="Path 28913" d="M145.674,171.54s7.182,4.892,7.344,16.45c.071,5.065-.456,9.8-1.621,18.091s-8.4,35.311-14.029,38.593-14.374-2.917-14.374-2.917l-42.28-28.068-10.22-8.255-5.065-9.562,1.59-3.039,12.469,9.562-6.716-6.209,1.317-1.671,2.431,1.692,7.091,2.654,1.55,10.129,2.188,1.5L127.8,225.266s-.506-21.768-.132-25.931.891-14.627,5.348-22.214" transform="translate(-60.244 -113.286)" fill="#fff"/>
        <g id="Group_29160" data-name="Group 29160" transform="translate(5.186 58.254)" clip-path="url(#clip-path)">
          <path id="Path_28914" data-name="Path 28914" d="M127.512,208.544c0,7.516.253,16.45.253,16.45L87.359,210.276l-2.188-1.5-1.55-10.129-7.091-2.654-2.421-1.722-1.317,1.671,6.7,6.179L67.019,192.56l-1.509,2.988,5.065,9.562,10.22,8.306,2.573,1.712,55.863,18Z" transform="translate(-65.429 -171.268)" fill="#c6caeb" opacity="0.5" style="mix-blend-mode: multiply;isolation: isolate"/>
        </g>
        <path id="Path_28916" data-name="Path 28916" d="M145.674,171.54s7.182,4.892,7.344,16.45c.071,5.065-.456,9.8-1.621,18.091s-8.4,35.311-14.029,38.593-14.374-2.917-14.374-2.917l-42.28-28.068-10.22-8.255-5.065-9.562,1.59-3.039,12.469,9.562-6.716-6.209,1.317-1.671,2.431,1.692,7.091,2.654,1.55,10.129,2.188,1.5L127.8,225.266s-.506-21.768-.132-25.931.891-14.627,5.348-22.214" transform="translate(-60.244 -113.286)" fill="none" stroke="#004e96" stroke-miterlimit="10" stroke-width="1.004"/>
        <path id="Path_28917" data-name="Path 28917" d="M127.039,225.3l15.437,11.142,4-7.091s2.765-2.178,3.171-3.819-.111-4.3.3-5.946,2.482-3.181,2.674-7.151,0-7.283,0-7.283,3.343-13.745,2.978-19.722-6.128-16.541-10.747-16.774-10.626.466-15.285,7.516-3.707,27.633-4.437,28.919.284,7.637.284,7.637A3.555,3.555,0,0,0,124,215.3c-.081,1.651,1.7,5.713,1.7,5.713Z" transform="translate(-59.487 -113.324)" fill="#fff"/>
        <path id="Path_28918" data-name="Path 28918" d="M125.528,199.41a28.584,28.584,0,0,1-.4,5.277c-.648,1.155.091,6.371.253,7.435a60.128,60.128,0,0,0,26.853,2.026,10.019,10.019,0,0,0,.344-2.158,72.807,72.807,0,0,0,0-7.283s.294-1.226.7-3.089A97.767,97.767,0,0,1,125.528,199.41Z" transform="translate(-59.476 -112.926)" fill="#faa61a" style="mix-blend-mode: multiply;isolation: isolate"/>
        <path id="Path_28919" data-name="Path 28919" d="M128.915,177.19c-1.448,2.907-2.259,7.273-2.725,11.7a60.34,60.34,0,0,0,28.879,3.515,38.633,38.633,0,0,0,.517-7.091,19.733,19.733,0,0,0-1.317-5.47,100.139,100.139,0,0,1-25.354-2.654Z" transform="translate(-59.458 -113.213)" fill="#faa61a" style="mix-blend-mode: multiply;isolation: isolate"/>
        <path id="Path_28920" data-name="Path 28920" d="M125.68,220.45l1.307,4.183,15.437,11.142,4-7.091s2.765-2.178,3.171-3.819a4.5,4.5,0,0,0,.132-.871A94.394,94.394,0,0,1,125.68,220.45Z" transform="translate(-59.465 -112.654)" fill="#004e96"/>
        <path id="Path_28921" data-name="Path 28921" d="M136.8,420.013s.344-8.772,2.026-21.6-2.36-31.036-3.039-34.075.344-9.785-.334-12.155-3.961-12.479-2.026-24.209,3.5-42.736,3.5-42.736-4.872-3.961-6.3-9.116-.334-6.777-.334-6.777" transform="translate(-59.411 -112.021)" fill="none" stroke="rgba(255,255,255,0.17)" stroke-miterlimit="10" stroke-width="1.004"/>
        <line id="Line_412" data-name="Line 412" x1="1.874" y2="10.372" transform="translate(77.772 157.805)" fill="none" stroke="rgba(255,255,255,0.17)" stroke-miterlimit="10" stroke-width="1.004"/>
      </g>
    </g>
  </g>
</svg>
